<svg width="15" height="15" viewBox="0 0 15 15" fill="none" xmlns="http://www.w3.org/2000/svg">
<path d="M3.18399 2.29248C2.94755 2.29248 2.72079 2.3864 2.5536 2.5536C2.3864 2.72079 2.29248 2.94755 2.29248 3.18399V11.0803C2.29248 11.2947 2.36974 11.5019 2.51008 11.6639C2.65042 11.826 2.84446 11.932 3.05663 11.9626V8.27837C3.05663 7.97437 3.1774 7.68282 3.39236 7.46786C3.60732 7.2529 3.89887 7.13214 4.20287 7.13214H10.0614C10.3654 7.13214 10.657 7.2529 10.8719 7.46786C11.0869 7.68282 11.2076 7.97437 11.2076 8.27837V11.9626C11.4198 11.932 11.6139 11.826 11.7542 11.6639C11.8945 11.5019 11.9718 11.2947 11.9718 11.0803V4.47593C11.9718 4.23904 11.8781 4.01234 11.7105 3.84524L10.419 2.55382C10.3362 2.47096 10.2379 2.40523 10.1297 2.36039C10.0215 2.31555 9.90549 2.29247 9.78835 2.29248H9.67933V4.45759C9.67933 4.60811 9.64968 4.75717 9.59208 4.89623C9.53447 5.0353 9.45004 5.16166 9.3436 5.2681C9.23717 5.37454 9.11081 5.45897 8.97174 5.51657C8.83267 5.57418 8.68362 5.60382 8.53309 5.60382H5.22175C4.91775 5.60382 4.6262 5.48306 4.41124 5.2681C4.19627 5.05314 4.07551 4.76159 4.07551 4.45759V2.29248H3.18399ZM4.83967 2.29248V4.45759C4.83967 4.6685 5.01084 4.83967 5.22175 4.83967H8.53309C8.63443 4.83967 8.73161 4.79941 8.80326 4.72776C8.87492 4.65611 8.91517 4.55892 8.91517 4.45759V2.29248H4.83967ZM10.4435 11.9718V8.27837C10.4435 8.17704 10.4032 8.07986 10.3316 8.0082C10.2599 7.93655 10.1627 7.8963 10.0614 7.8963H4.20287C4.10154 7.8963 4.00435 7.93655 3.9327 8.0082C3.86105 8.07986 3.82079 8.17704 3.82079 8.27837V11.9718H10.4435ZM1.52832 3.18399C1.52832 2.74488 1.70276 2.32375 2.01326 2.01326C2.32375 1.70276 2.74488 1.52832 3.18399 1.52832H9.78886C10.228 1.52835 10.6491 1.7028 10.9595 2.01331L12.251 3.30473C12.5617 3.61549 12.736 4.03679 12.736 4.47593V11.0803C12.736 11.5194 12.5615 11.9405 12.251 12.251C11.9405 12.5615 11.5194 12.736 11.0803 12.736H3.18399C2.74488 12.736 2.32375 12.5615 2.01326 12.251C1.70276 11.9405 1.52832 11.5194 1.52832 11.0803V3.18399Z" fill="#6C3108"/>
</svg>
